<svg width="32" height="32" viewBox="0 0 32 32" fill="none" xmlns="http://www.w3.org/2000/svg">
  <!-- Simplified tree icon for favicon -->
  <g transform="translate(6, 4)">
    <!-- Trunk -->
    <rect x="8.5" y="16" width="3" height="8" fill="#14B8A6" rx="0.5"/>

    <!-- Main branches -->
    <path d="M10 16 Q6 12 3 12" stroke="#5EEAD4" stroke-width="1.5" fill="none" stroke-linecap="round"/>
    <path d="M10 16 Q14 12 17 12" stroke="#5EEAD4" stroke-width="1.5" fill="none" stroke-linecap="round"/>

    <!-- Secondary branches -->
    <path d="M10 14 Q7 10 4 8" stroke="#5EEAD4" stroke-width="1.2" fill="none" stroke-linecap="round"/>
    <path d="M10 14 Q13 10 16 8" stroke="#5EEAD4" stroke-width="1.2" fill="none" stroke-linecap="round"/>

    <!-- Top branch -->
    <path d="M10 12 L10 3" stroke="#5EEAD4" stroke-width="1.5" fill="none" stroke-linecap="round"/>

    <!-- Nodes - simplified -->
    <circle cx="3" cy="12" r="1.5" fill="#60A5FA"/>
    <circle cx="17" cy="12" r="1.5" fill="#60A5FA"/>
    <circle cx="4" cy="8" r="1.3" fill="#60A5FA"/>
    <circle cx="16" cy="8" r="1.3" fill="#60A5FA"/>
    <circle cx="10" cy="3" r="1.5" fill="#60A5FA"/>

    <!-- Squares -->
    <rect x="2" y="14" width="2" height="2" fill="#60A5FA" opacity="0.7" rx="0.3"/>
    <rect x="16" y="14" width="2" height="2" fill="#60A5FA" opacity="0.7" rx="0.3"/>

    <!-- Diamonds -->
    <path d="M10 6 L11 7 L10 8 L9 7 Z" fill="#60A5FA" opacity="0.7"/>
  </g>
</svg>
