<svg width="140" height="40" viewBox="0 0 140 40" fill="none" xmlns="http://www.w3.org/2000/svg">
  <!-- Tree icon -->
  <g transform="translate(2, 5)">
    <!-- Trunk -->
    <rect x="13" y="20" width="4" height="10" fill="#14B8A6" rx="1"/>

    <!-- Branches -->
    <path d="M15 20 Q10 15 5 15" stroke="#5EEAD4" stroke-width="1.5" fill="none" stroke-linecap="round"/>
    <path d="M15 20 Q20 15 25 15" stroke="#5EEAD4" stroke-width="1.5" fill="none" stroke-linecap="round"/>
    <path d="M15 18 Q12 13 8 10" stroke="#5EEAD4" stroke-width="1.2" fill="none" stroke-linecap="round"/>
    <path d="M15 18 Q18 13 22 10" stroke="#5EEAD4" stroke-width="1.2" fill="none" stroke-linecap="round"/>
    <path d="M15 16 Q10 8 5 5" stroke="#5EEAD4" stroke-width="1.2" fill="none" stroke-linecap="round"/>
    <path d="M15 16 Q20 8 25 5" stroke="#5EEAD4" stroke-width="1.2" fill="none" stroke-linecap="round"/>
    <path d="M15 14 L15 3" stroke="#5EEAD4" stroke-width="1.5" fill="none" stroke-linecap="round"/>

    <!-- Nodes -->
    <circle cx="5" cy="15" r="2" fill="#60A5FA" opacity="0.9"/>
    <circle cx="25" cy="15" r="2" fill="#60A5FA" opacity="0.9"/>
    <circle cx="8" cy="10" r="1.8" fill="#60A5FA" opacity="0.9"/>
    <circle cx="22" cy="10" r="1.8" fill="#60A5FA" opacity="0.9"/>
    <circle cx="5" cy="5" r="1.8" fill="#60A5FA" opacity="0.9"/>
    <circle cx="25" cy="5" r="1.8" fill="#60A5FA" opacity="0.9"/>
    <circle cx="15" cy="3" r="2" fill="#60A5FA" opacity="0.9"/>
    <rect x="3" y="18" width="3" height="3" fill="#60A5FA" opacity="0.7" rx="0.5"/>
    <rect x="24" y="18" width="3" height="3" fill="#60A5FA" opacity="0.7" rx="0.5"/>
  </g>

  <!-- "EGREGORE" text as paths -->
  <g transform="translate(38, 12)">
    <!-- E -->
    <path d="M0 0 L0 16 L8 16 M0 8 L7 8 M0 0 L8 0" stroke="#5EEAD4" stroke-width="2.5" stroke-linecap="round" stroke-linejoin="round" fill="none"/>
    <!-- G -->
    <path d="M12 16 C12 16 12 16 12 16 L12 8 L18 8 M18 0 L12 0 C12 0 12 0 12 0 L12 16 C12 16 12 16 12 16 L18 16" stroke="#5EEAD4" stroke-width="2.5" stroke-linecap="round" stroke-linejoin="round" fill="none"/>
    <!-- R -->
    <path d="M22 16 L22 0 L28 0 C28 0 30 0 30 4 C30 8 28 8 28 8 L22 8 M28 8 L30 16" stroke="#5EEAD4" stroke-width="2.5" stroke-linecap="round" stroke-linejoin="round" fill="none"/>
    <!-- E -->
    <path d="M34 0 L34 16 L42 16 M34 8 L41 8 M34 0 L42 0" stroke="#5EEAD4" stroke-width="2.5" stroke-linecap="round" stroke-linejoin="round" fill="none"/>
    <!-- G -->
    <path d="M46 16 C46 16 46 16 46 16 L46 8 L52 8 M52 0 L46 0 C46 0 46 0 46 0 L46 16 C46 16 46 16 46 16 L52 16" stroke="#5EEAD4" stroke-width="2.5" stroke-linecap="round" stroke-linejoin="round" fill="none"/>
    <!-- O -->
    <path d="M56 0 C56 0 56 0 56 0 L56 16 C56 16 56 16 56 16 L62 16 C62 16 62 16 62 16 L62 0 C62 0 62 0 62 0 Z" stroke="#5EEAD4" stroke-width="2.5" stroke-linecap="round" stroke-linejoin="round" fill="none"/>
    <!-- R -->
    <path d="M66 16 L66 0 L72 0 C72 0 74 0 74 4 C74 8 72 8 72 8 L66 8 M72 8 L74 16" stroke="#5EEAD4" stroke-width="2.5" stroke-linecap="round" stroke-linejoin="round" fill="none"/>
    <!-- E -->
    <path d="M78 0 L78 16 L86 16 M78 8 L85 8 M78 0 L86 0" stroke="#5EEAD4" stroke-width="2.5" stroke-linecap="round" stroke-linejoin="round" fill="none"/>
  </g>
</svg>
